<svg width="800" height="600" xmlns="http://www.w3.org/2000/svg">

 <g>
  <title>Layer 1</title>
  <g>
   <!--! Font Awesome Pro 6.4.2 by @fontawesome - https://fontawesome.com License - https://fontawesome.com/license (Commercial License) Copyright 2023 Fonticons, Inc. -->
   <path fill="#ffffff" d="m687.82451,299.5c0,18 -15,32.1 -32,32.1l-32,0l0.7,160.2c0,2.7 -0.2,5.4 -0.5,8.1l0,16.1c0,22.1 -17.9,40 -40,40l-16,0c-1.1,0 -2.2,0 -3.3,-0.1c-1.4,0.1 -2.8,0.1 -4.2,0.1l-32.5,0l-24,0c-22.1,0 -40,-17.9 -40,-40l0,-24l0,-64c0,-17.7 -14.3,-32 -32,-32l-64,0c-17.7,0 -32,14.3 -32,32l0,64l0,24c0,22.1 -17.9,40 -40,40l-24,0l-31.9,0c-1.5,0 -3,-0.1 -4.5,-0.2c-1.2,0.1 -2.4,0.2 -3.6,0.2l-16,0c-22.1,0 -40,-17.9 -40,-40l0,-112c0,-0.9 0,-1.9 0.1,-2.8l0,-69.6l-32.1,0c-18,0 -32,-14 -32,-32.1c0,-9 3,-17 10,-24l256.4,-223.5c7,-7 15,-8 22,-8s15,2 21,7l255.4,224.5c8,7 12,15 11,24z"/>
  </g>
 </g>
</svg>